<svg width="407" height="407" viewBox="0 0 407 407" fill="none" xmlns="http://www.w3.org/2000/svg">
<g clip-path="url(#clip0_2_7065)">
<rect width="407" height="407" rx="20" fill="white"/>
<g filter="url(#filter0_d_2_7065)">
<path d="M57.8484 95.96C57.8484 77.2044 73.0693 62 91.8451 62H307.158C325.934 62 341.155 77.2044 341.155 95.96V163.88C341.155 167.006 343.711 169.491 346.797 170.006C362.888 172.69 375.151 186.665 375.151 203.5C375.151 220.335 362.888 234.31 346.797 236.994C343.711 237.509 341.155 239.994 341.155 243.12V311.04C341.155 329.796 325.934 345 307.158 345H91.8451C73.0693 345 57.8484 329.796 57.8484 311.04V243.12C57.8484 239.994 60.4042 237.509 63.4908 236.994C79.5813 234.31 91.8451 220.335 91.8451 203.5C91.8451 186.665 79.5813 172.69 63.4908 170.006C60.4042 169.491 57.8484 167.006 57.8484 163.88V95.96Z" fill="#079BAB"/>
<path fill-rule="evenodd" clip-rule="evenodd" d="M91.8451 68C76.3768 68 63.8484 80.5242 63.8484 95.96V163.775C63.8512 163.778 63.8542 163.781 63.8575 163.784C63.904 163.833 63.9836 163.899 64.0993 163.96C64.2142 164.021 64.3441 164.065 64.4783 164.087C83.409 167.246 97.8451 183.679 97.8451 203.5C97.8451 223.321 83.409 239.754 64.4783 242.913C64.3441 242.935 64.2142 242.979 64.0993 243.04C63.9836 243.101 63.904 243.167 63.8575 243.216C63.8542 243.219 63.8512 243.222 63.8484 243.225V311.04C63.8484 326.476 76.3768 339 91.8451 339H307.158C322.626 339 335.155 326.476 335.155 311.04V243.12C335.155 236.473 340.452 231.97 345.81 231.076C359.06 228.865 369.151 217.35 369.151 203.5C369.151 189.65 359.06 178.135 345.81 175.924C340.452 175.03 335.155 170.527 335.155 163.88V95.96C335.155 80.5242 322.626 68 307.158 68H91.8451ZM91.8451 62C73.0692 62 57.8484 77.2044 57.8484 95.96V163.88C57.8484 167.006 60.4042 169.491 63.4908 170.006C79.5813 172.69 91.8451 186.665 91.8451 203.5C91.8451 220.335 79.5813 234.31 63.4908 236.994C60.4042 237.509 57.8484 239.994 57.8484 243.12V311.04C57.8484 329.796 73.0692 345 91.8451 345H307.158C325.934 345 341.155 329.796 341.155 311.04V243.12C341.155 239.994 343.71 237.509 346.797 236.994C362.888 234.31 375.151 220.335 375.151 203.5C375.151 186.665 362.888 172.69 346.797 170.006C343.71 169.491 341.155 167.006 341.155 163.88V95.96C341.155 77.2044 325.934 62 307.158 62H91.8451Z" fill="#05646E"/>
<path d="M339.623 95.96C339.623 77.2044 354.844 62 373.62 62H588.933C607.709 62 622.93 77.2044 622.93 95.96V163.88C622.93 167.006 625.485 169.491 628.572 170.006C644.662 172.69 656.926 186.665 656.926 203.5C656.926 220.335 644.662 234.31 628.572 236.994C625.485 237.509 622.93 239.994 622.93 243.12V311.04C622.93 329.796 607.709 345 588.933 345H373.62C354.844 345 339.623 329.796 339.623 311.04V243.12C339.623 239.994 342.179 237.509 345.266 236.994C361.356 234.31 373.62 220.335 373.62 203.5C373.62 186.665 361.356 172.69 345.266 170.006C342.179 169.491 339.623 167.006 339.623 163.88V95.96Z" fill="#A94FC9"/>
<path fill-rule="evenodd" clip-rule="evenodd" d="M373.62 68C358.152 68 345.623 80.5242 345.623 95.96V163.775C345.626 163.778 345.629 163.781 345.632 163.784C345.679 163.833 345.759 163.899 345.874 163.96C345.989 164.021 346.119 164.065 346.253 164.087C365.184 167.246 379.62 183.679 379.62 203.5C379.62 223.321 365.184 239.754 346.253 242.913C346.119 242.935 345.989 242.979 345.874 243.04C345.759 243.101 345.679 243.167 345.632 243.216C345.629 243.219 345.626 243.222 345.623 243.225V311.04C345.623 326.476 358.152 339 373.62 339H588.933C604.401 339 616.93 326.476 616.93 311.04V243.12C616.93 236.473 622.227 231.97 627.584 231.076C640.835 228.865 650.926 217.35 650.926 203.5C650.926 189.65 640.835 178.135 627.584 175.924C622.227 175.03 616.93 170.527 616.93 163.88V95.96C616.93 80.5242 604.401 68 588.933 68H373.62ZM373.62 62C354.844 62 339.623 77.2044 339.623 95.96V163.88C339.623 167.006 342.179 169.491 345.266 170.006C361.356 172.69 373.62 186.665 373.62 203.5C373.62 220.335 361.356 234.31 345.266 236.994C342.179 237.509 339.623 239.994 339.623 243.12V311.04C339.623 329.796 354.844 345 373.62 345H588.933C607.709 345 622.93 329.796 622.93 311.04V243.12C622.93 239.994 625.485 237.509 628.572 236.994C644.662 234.31 656.926 220.335 656.926 203.5C656.926 186.665 644.662 172.69 628.572 170.006C625.485 169.491 622.93 167.006 622.93 163.88V95.96C622.93 77.2044 607.709 62 588.933 62H373.62Z" fill="#600B75"/>
<path d="M-225 95.96C-225 77.2044 -209.779 62 -191.003 62H24.3095C43.0854 62 58.3063 77.2044 58.3063 95.96V163.88C58.3063 167.006 60.8621 169.491 63.9487 170.006C80.0392 172.69 92.3031 186.665 92.3031 203.5C92.3031 220.335 80.0392 234.31 63.9487 236.994C60.8621 237.509 58.3063 239.994 58.3063 243.12V311.04C58.3063 329.796 43.0854 345 24.3095 345H-191.003C-209.779 345 -225 329.796 -225 311.04V243.12C-225 239.994 -222.444 237.509 -219.358 236.994C-203.267 234.31 -191.003 220.335 -191.003 203.5C-191.003 186.665 -203.267 172.69 -219.358 170.006C-222.444 169.491 -225 167.006 -225 163.88V95.96Z" fill="#A94FC9"/>
<path fill-rule="evenodd" clip-rule="evenodd" d="M-191.003 68C-206.472 68 -219 80.5242 -219 95.96V163.775C-218.997 163.778 -218.994 163.781 -218.991 163.784C-218.944 163.833 -218.865 163.899 -218.749 163.96C-218.634 164.021 -218.504 164.065 -218.37 164.087C-199.439 167.246 -185.003 183.679 -185.003 203.5C-185.003 223.321 -199.439 239.754 -218.37 242.913C-218.504 242.935 -218.634 242.979 -218.749 243.04C-218.865 243.101 -218.944 243.167 -218.991 243.216C-218.994 243.219 -218.997 243.222 -219 243.225V311.04C-219 326.476 -206.472 339 -191.003 339H24.3095C39.7778 339 52.3063 326.476 52.3063 311.04V243.12C52.3063 236.473 57.6038 231.97 62.9612 231.076C76.2115 228.865 86.3031 217.35 86.3031 203.5C86.3031 189.65 76.2115 178.135 62.9612 175.924C57.6038 175.03 52.3063 170.527 52.3063 163.88V95.96C52.3063 80.5242 39.7778 68 24.3095 68H-191.003ZM-191.003 62C-209.779 62 -225 77.2044 -225 95.96V163.88C-225 167.006 -222.444 169.491 -219.358 170.006C-203.267 172.69 -191.003 186.665 -191.003 203.5C-191.003 220.335 -203.267 234.31 -219.358 236.994C-222.444 237.509 -225 239.994 -225 243.12V311.04C-225 329.796 -209.779 345 -191.003 345H24.3095C43.0854 345 58.3063 329.796 58.3063 311.04V243.12C58.3063 239.994 60.8622 237.509 63.9487 236.994C80.0392 234.31 92.3031 220.335 92.3031 203.5C92.3031 186.665 80.0392 172.69 63.9487 170.006C60.8622 169.491 58.3063 167.006 58.3063 163.88V95.96C58.3063 77.2044 43.0854 62 24.3095 62H-191.003Z" fill="#600B75"/>
<path d="M196.475 267C154.239 267 120 236.779 120 199.5C120 162.221 154.239 132 196.475 132C238.71 132 308 156.398 308 199.5C308 242.602 238.71 267 196.475 267Z" fill="#E3F7FA"/>
</g>
</g>
<defs>
<filter id="filter0_d_2_7065" x="-229" y="62" width="889.926" height="291" filterUnits="userSpaceOnUse" color-interpolation-filters="sRGB">
<feFlood flood-opacity="0" result="BackgroundImageFix"/>
<feColorMatrix in="SourceAlpha" type="matrix" values="0 0 0 0 0 0 0 0 0 0 0 0 0 0 0 0 0 0 127 0" result="hardAlpha"/>
<feOffset dy="4"/>
<feGaussianBlur stdDeviation="2"/>
<feComposite in2="hardAlpha" operator="out"/>
<feColorMatrix type="matrix" values="0 0 0 0 0 0 0 0 0 0 0 0 0 0 0 0 0 0 0.25 0"/>
<feBlend mode="normal" in2="BackgroundImageFix" result="effect1_dropShadow_2_7065"/>
<feBlend mode="normal" in="SourceGraphic" in2="effect1_dropShadow_2_7065" result="shape"/>
</filter>
<clipPath id="clip0_2_7065">
<rect width="407" height="407" fill="white"/>
</clipPath>
</defs>
</svg>
